`                            __     __   __            __  __ 
                  .-----..--|  |.--|  | |  |--..---.-.|  ||  |
                  |  _  ||  _  ||  _  | |  _  ||  _  ||  ||  |
                  |_____||_____||_____| |_____||___._||__||__|
                                  -links.com   `                                                                                          Beowulf is a 2007 performance capture fantasy film based on the Anglo-Saxon English epic poem of the same name. Directed by Robert Zemeckis, the film was created through a motion capture process similar to the technique used in The Polar Express. The cast includes Ray Winstone, Anthony Hopkins, Robin Wright Penn, Brendan Gleeson, John Malkovich, Crispin Glover, Alison Lohman, and Angelina Jolie. It was released in the United Kingdom and United States on November 16, 2007, and was available to view in IMAX 3D, Real D, Dolby 3D and standard 2D format. `

Screen Shots `
  
http://i724.photobucket.com/albums/ww246/oddball-links/Beowulf/5.jpg
 
http://i724.photobucket.com/albums/ww246/oddball-links/Beowulf/4.jpg
 
http://i724.photobucket.com/albums/ww246/oddball-links/Beowulf/3.jpg
 
http://i724.photobucket.com/albums/ww246/oddball-links/Beowulf/2.jpg
 
http://i724.photobucket.com/albums/ww246/oddball-links/Beowulf/1.jpg ` 

cast `


 Ray Winstone ..................  Beowulf / Golden Man / Dragon 

 Anthony Hopkins ...............  Hrothgar 

 John Malkovich ................  Unferth 

 Robin Wright Penn .............  Wealthow (as Robin Wright-Penn) 

 Brendan Gleeson ...............  Wiglaf 

 Crispin Glover ................  Grendel 

 Alison Lohman .................  Ursula 

 Angelina Jolie ................  Grendel's Mother `

 General
Complete name                    : Beowulf - 2007
Format                           : AVI
Format/Info                      : Audio Video Interleave
File size                        : 1.10 GiB
Duration                         : 1h 49mn
Overall bit rate                 : 1 434 Kbps

Video
Format                           : MPEG-4 Visual
Format profile                   : Streaming Video@L1
Format settings, BVOP            : Yes
Format settings, QPel            : No
Format settings, GMC             : No warppoints
Format settings, Matrix          : Default
Muxing mode                      : Packed bitstream
Codec ID                         : XVID
Codec ID/Hint                    : XviD
Duration                         : 1h 49mn
Bit rate                         : 1 230 Kbps
Width                            : 1 024 pixels
Height                           : 582 pixels
Display aspect ratio             : 16/9
Frame rate                       : 29.970 fps
Resolution                       : 24 bits
Colorimetry                      : 4:2:0
Scan type                        : Progressive
Bits/(Pixel*Frame)               : 0.069
Stream size                      : 963 MiB (86%)
Writing library                  : XviD 1.1.0 (UTC 2005-11-22)

Audio
Format                           : MPEG Audio
Format version                   : Version 1
Format profile                   : Layer 3
Codec ID                         : 55
Codec ID/Hint                    : MP3
Duration                         : 1h 49mn
Bit rate mode                    : Constant
Bit rate                         : 192 Kbps
Channel(s)                       : 2 channels
Sampling rate                    : 44.1 KHz
Resolution                       : 16 bits
Video delay                      : 26ms
Stream size                      : 150 MiB (13%)
Alignment                        : Split accross interleaves
Interleave, duration             : 33 ms (1.00 video frame)
Title                            : Audio Stream
Writing library                  : LAME3.92 `


For more oddball torrents  http://thepiratebay.org/user/oddball-links `                                                                                                            Please seed after downloading `                                                                                            :::===  :::===== :::===== :::====       :::= === :::====  :::====
        :::     :::      :::      :::  ===      :::===== :::  === :::====
         =====  ======   ======   ===  ===      ======== ===  ===   ===  
            === ===      ===      ===  ===      === ==== ===  ===   ===  
        ======  ======== ======== =======       ===  ===  ======    ===  
                                                                         
                  :::=====  :::====  :::===== :::===== :::==== 
                  :::       :::  === :::      :::      :::  ===
                  === ===== =======  ======   ======   ===  ===
                  ===   === === ===  ===      ===      ===  ===
                   =======  ===  === ======== ======== =======